<svg version="1.1" id="logo-svg" xmlns="http://www.w3.org/2000/svg" xmlns:xlink="http://www.w3.org/1999/xlink" x="0px" y="0px"
	 width="742px" height="150.769px" viewBox="0 0 742 150.769" enable-background="new 0 0 742 150.769" xml:space="preserve">
<g class="svg-mark">
	<path id="outside-right" class="outside" fill="none" stroke="#EF4438" stroke-width="12" stroke-miterlimit="10" d="M88.739,38.921V5.718h55.583v138.93H83.174"/>
	<path id="inside-right" class="inside" fill="none" stroke="#EF4438" stroke-width="12" stroke-miterlimit="10" d="M116.562,27.792v89.255H88.739l0.185-27.818
		H55.537"/>
	<path id="inside-left" class="inside" fill="none" stroke="#EF4438" stroke-width="12" stroke-miterlimit="10" d="M33.095,122.39V33.136h27.823l-0.185,27.817H94.12
		"/>
	<path id="outside-left" class="outside" fill="none" stroke="#EF4438" stroke-width="12" stroke-miterlimit="10" d="M60.916,111.443v33.205H5.333V5.718h61.148"/>
</g>
<g class="svg-logo">
	<g>
		<path fill="#37474F" d="M197.904,52.862h17.761c10.489,0,17.117,5.985,17.117,15.058v0.13
			c0,10.104-8.108,15.379-18.019,15.379h-8.944v14.479h-7.916V52.862z M215.021,76.286c5.984,0,9.717-3.347,9.717-8.045v-0.128
			c0-5.277-3.797-8.043-9.717-8.043h-9.202v16.216H215.021z"/>
		<path fill="#37474F" d="M237.807,52.862h33.398v7.079h-25.483v11.712h22.587v7.078h-22.587v12.1h25.805v7.078
			h-33.72V52.862z"/>
		<path fill="#37474F" d="M290.192,60.198h-14.286v-7.336h36.552v7.336h-14.286v37.71h-7.98V60.198z"/>
		<path fill="#37474F" d="M317.74,52.862h33.398v7.079h-25.483v11.712h22.587v7.078h-22.587v12.1h25.805v7.078
			h-33.72V52.862z"/>
		<path fill="#37474F" d="M357.771,52.862h20.077c5.663,0,10.104,1.673,12.999,4.504
			c2.381,2.446,3.732,5.792,3.732,9.718v0.128c0,7.4-4.44,11.84-10.747,13.642l12.163,17.054h-9.331l-11.068-15.702h-0.129h-9.781
			v15.702h-7.915V52.862z M377.27,75.191c5.663,0,9.267-2.96,9.267-7.528v-0.129c0-4.826-3.476-7.464-9.331-7.464h-11.519v15.122
			H377.27z"/>
		<path fill="#37474F" d="M396.459,91.28l5.212-5.342c2.639,3.347,5.277,5.277,9.073,5.277
			c4.248,0,7.144-2.831,7.144-8.816V52.862h8.108v29.73c0,5.342-1.545,9.331-4.183,11.969c-2.639,2.64-6.436,3.99-10.94,3.99
			C403.924,98.551,399.418,95.333,396.459,91.28z"/>
		<path fill="#37474F" d="M431.79,75.513v-0.128c0-12.677,9.782-23.296,23.617-23.296s23.488,10.489,23.488,23.168
			v0.128c0,12.677-9.781,23.294-23.617,23.294C441.443,98.679,431.79,88.19,431.79,75.513z M470.595,75.513v-0.128
			c0-8.752-6.371-16.024-15.316-16.024c-8.944,0-15.187,7.144-15.187,15.896v0.128c0,8.752,6.371,16.023,15.315,16.023
			C464.353,91.408,470.595,84.265,470.595,75.513z"/>
		<path fill="#37474F" d="M484.113,52.862h7.915v18.727h21.493V52.862h7.915v45.046h-7.915V78.924h-21.493v18.983
			h-7.915V52.862z"/>
		<path fill="#37474F" d="M527.362,52.862h7.336l24.132,31.146V52.862h7.786v45.046h-6.628l-24.84-32.047v32.047
			h-7.786V52.862z"/>
		<path fill="#37474F" d="M580.78,77.634v20.273h-5.085V52.856h5.085v20.016h26.001V52.856h5.085v45.051h-5.085
			V77.634H580.78z"/>
		<path fill="#37474F" d="M655.758,78.666c0,3.303-0.45,6.2-1.352,8.688c-0.9,2.488-2.178,4.57-3.829,6.243
			s-3.626,2.928-5.921,3.765c-2.296,0.836-4.858,1.255-7.69,1.255c-2.79,0-5.332-0.419-7.627-1.255
			c-2.296-0.837-4.27-2.08-5.921-3.732c-1.652-1.652-2.929-3.701-3.83-6.147c-0.9-2.445-1.351-5.255-1.351-8.43V52.856h5.084v25.873
			c0,4.892,1.212,8.646,3.636,11.263c2.425,2.617,5.803,3.926,10.137,3.926c4.162,0,7.466-1.243,9.911-3.732
			c2.446-2.488,3.669-6.2,3.669-11.134V52.856h5.084V78.666z"/>
		<path fill="#37474F" d="M696.561,52.856h4.957v45.051h-4.055l-29.091-36.942v36.942h-4.955V52.856h4.763
			l28.381,36.106V52.856z"/>
		<path fill="#37474F" d="M726.876,97.908h-5.086V57.555h-15.124v-4.698H742v4.698h-15.124V97.908z"/>
	</g>
</g>
</svg>
